<svg width="904" height="293" viewBox="0 0 904 293" fill="none" xmlns="http://www.w3.org/2000/svg">
<path d="M108.032 104.44C122.24 104.44 134.4 111.992 134.4 134.52V171H116.352V136.312C116.352 125.176 112.128 119.288 103.04 119.288C93.696 119.288 88.32 125.944 88.32 137.336V171H70.272V105.208H86.016L87.68 113.4C91.904 108.28 97.92 104.44 108.032 104.44ZM175.474 171.768C153.586 171.768 140.402 158.584 140.402 138.232C140.402 117.752 153.842 104.44 174.194 104.44C193.906 104.44 207.218 116.728 207.474 136.056C207.474 137.976 207.346 140.152 206.962 142.2H159.218V143.096C159.602 152.44 165.618 158.072 174.706 158.072C182.002 158.072 187.122 154.872 188.658 148.728H206.45C204.402 161.528 193.01 171.768 175.474 171.768ZM159.602 130.424H189.298C188.018 122.36 182.514 117.88 174.322 117.88C166.514 117.88 160.626 122.616 159.602 130.424ZM277.497 155.768H279.545V171H270.329C260.985 171 258.041 166.52 258.169 160.248C253.561 167.544 246.905 171.768 236.665 171.768C222.457 171.768 212.217 164.984 212.217 152.44C212.217 138.488 222.713 130.552 242.425 130.552H255.481V127.352C255.481 121.464 251.257 117.624 243.705 117.624C236.665 117.624 231.929 120.824 231.161 125.688H213.753C215.033 112.888 226.809 104.44 244.217 104.44C262.649 104.44 273.273 112.632 273.273 128.376V151.672C273.273 155.128 274.681 155.768 277.497 155.768ZM255.481 143.864V142.584H242.297C234.745 142.584 230.393 145.656 230.393 151.16C230.393 155.768 234.105 158.712 240.121 158.712C249.593 158.712 255.353 152.824 255.481 143.864ZM320.959 105.208H324.031V121.592H316.863C306.111 121.592 302.015 128.76 302.015 138.744V171H283.967V105.208H300.351L302.015 115.064C305.599 109.176 310.719 105.208 320.959 105.208Z" fill="#151515"/>
<path d="M337.852 184.824H331.324L367.548 77.56H374.076L337.852 184.824ZM413.388 171.768C392.908 171.768 380.364 158.84 380.364 138.104C380.364 117.752 393.548 104.44 414.028 104.44C431.692 104.44 442.7 114.168 445.132 129.784H426.316C424.908 123.256 420.556 119.16 413.772 119.16C404.556 119.16 398.796 126.968 398.796 138.104C398.796 149.24 404.556 157.048 413.772 157.048C420.556 157.048 425.036 152.824 426.316 146.168H445.26C442.828 161.912 431.052 171.768 413.388 171.768ZM512.83 155.768H514.75V171H505.918C497.342 171 494.142 167.032 494.014 161.4C489.278 168.056 482.366 171.768 473.022 171.768C459.198 171.768 448.958 164.856 448.958 152.312C448.958 138.36 459.326 130.552 478.782 130.552H491.198V127.352C491.198 121.464 487.23 117.624 479.678 117.624C473.15 117.624 468.542 120.824 467.902 125.688H450.366C451.646 113.144 462.91 104.44 480.446 104.44C498.622 104.44 509.118 112.632 509.118 128.376V151.672C509.118 154.872 510.014 155.768 512.83 155.768ZM491.198 144.376V142.584H478.526C471.23 142.584 467.134 145.656 467.134 151.16C467.134 155.768 470.718 158.712 476.478 158.712C485.438 158.712 491.198 152.952 491.198 144.376ZM590.271 104.312C603.967 104.312 612.159 113.272 612.159 128.76V171H594.879V131.192C594.879 124.664 592.191 119.928 586.047 119.928C579.903 119.928 576.575 124.792 576.575 131.32V171H559.167V131.192C559.167 125.176 557.247 119.928 550.207 119.928C544.063 119.928 540.863 124.664 540.863 131.192V171H523.583V105.208H538.175L539.071 111.608C542.911 106.872 548.543 104.312 555.071 104.312C562.495 104.312 568.767 107.768 571.967 113.784C576.191 107.768 582.335 104.312 590.271 104.312ZM662.991 104.44C680.271 104.44 692.943 117.496 692.943 138.232C692.943 158.712 680.271 171.768 663.119 171.768C654.287 171.768 647.887 168.056 643.791 162.808V196.6H625.743V105.208H641.487L643.279 114.168C647.375 108.536 653.775 104.44 662.991 104.44ZM659.023 157.048C668.495 157.048 674.511 149.24 674.511 137.976C674.511 126.84 668.495 119.16 659.023 119.16C649.423 119.16 643.535 126.84 643.535 137.976C643.535 149.112 649.423 157.048 659.023 157.048ZM746.661 138.616V105.208H764.709V171H748.709L747.173 163.192C742.949 168.184 737.317 171.768 728.357 171.768C715.173 171.768 702.885 165.112 702.885 142.2V105.208H720.933V139.768C720.933 150.264 724.389 156.152 733.093 156.152C741.541 156.152 746.661 150.008 746.661 138.616ZM805.815 171.768C787.767 171.768 775.607 163.192 774.967 149.112H792.119C792.631 154.872 797.367 158.84 805.943 158.84C813.111 158.84 817.463 156.408 817.463 151.8C817.463 146.424 812.983 145.912 802.999 144.632C787.895 142.84 776.247 139.384 776.247 125.816C776.247 112.76 787.383 104.312 804.023 104.312C821.303 104.312 833.207 112.12 833.975 125.56H816.823C816.183 120.312 811.575 117.112 804.535 117.112C797.879 117.112 793.527 119.672 793.527 123.896C793.527 128.888 799.031 129.528 808.119 130.552C822.455 132.088 834.999 135.544 834.999 150.392C834.999 163.448 823.095 171.768 805.815 171.768Z" fill="#02BBEC"/>
<path d="M477.06 218.424C482.136 218.424 485.88 221.844 485.88 227.82C485.88 233.436 482.136 237.216 477.06 237.216C473.964 237.216 471.876 235.956 470.76 234.192V244.2H467.808V218.64H470.364L470.76 221.592C471.984 219.9 473.964 218.424 477.06 218.424ZM476.772 234.588C480.408 234.588 482.856 231.816 482.856 227.82C482.856 223.824 480.408 221.052 476.772 221.052C473.172 221.052 470.724 223.824 470.724 227.748C470.724 231.78 473.172 234.588 476.772 234.588ZM498.797 237.216C493.433 237.216 489.689 233.4 489.689 227.82C489.689 222.24 493.433 218.424 498.797 218.424C504.161 218.424 507.905 222.24 507.905 227.82C507.905 233.4 504.161 237.216 498.797 237.216ZM498.797 234.588C502.433 234.588 504.881 231.744 504.881 227.82C504.881 223.896 502.433 221.052 498.797 221.052C495.161 221.052 492.713 223.896 492.713 227.82C492.713 231.744 495.161 234.588 498.797 234.588ZM518.146 237H514.618L510.586 218.64H513.538L516.634 233.58L520.414 221.052H523.078L526.75 233.58L529.954 218.64H532.762L528.658 237H525.13L521.71 225.444L518.146 237ZM552.78 228.468H538.524V228.648C538.632 232.14 540.828 234.588 544.32 234.588C546.912 234.588 548.928 233.22 549.54 230.844H552.528C551.808 234.516 548.784 237.216 544.536 237.216C539.028 237.216 535.428 233.436 535.428 227.82C535.428 222.24 538.956 218.424 544.14 218.424C549.324 218.424 552.708 221.7 552.852 227.136C552.852 227.424 552.816 228.036 552.78 228.468ZM544.176 221.016C541.476 221.016 538.992 222.96 538.704 225.948H549.684C549.396 222.78 547.236 221.016 544.176 221.016ZM569.37 218.64H571.35V221.52H568.974C564.69 221.52 563.43 224.796 563.43 227.712V234.3H568.794V237H556.374V234.3H560.478V221.34H556.374V218.64H563.286L563.394 221.736C564.222 220.296 565.878 218.64 569.37 218.64ZM591.522 228.468H577.266V228.648C577.374 232.14 579.57 234.588 583.062 234.588C585.654 234.588 587.67 233.22 588.282 230.844H591.27C590.55 234.516 587.526 237.216 583.278 237.216C577.77 237.216 574.17 233.436 574.17 227.82C574.17 222.24 577.698 218.424 582.882 218.424C588.066 218.424 591.45 221.7 591.594 227.136C591.594 227.424 591.558 228.036 591.522 228.468ZM582.918 221.016C580.218 221.016 577.734 222.96 577.446 225.948H588.426C588.138 222.78 585.978 221.016 582.918 221.016ZM610.524 221.448V211.8H613.476V237H610.92L610.524 234.048C609.3 235.74 607.32 237.216 604.224 237.216C599.148 237.216 595.404 233.796 595.404 227.82C595.404 222.204 599.148 218.424 604.224 218.424C607.32 218.424 609.408 219.684 610.524 221.448ZM604.512 234.588C608.112 234.588 610.56 231.816 610.56 227.892C610.56 223.86 608.112 221.052 604.512 221.052C600.876 221.052 598.428 223.824 598.428 227.82C598.428 231.816 600.876 234.588 604.512 234.588ZM640.572 218.424C645.648 218.424 649.392 221.844 649.392 227.82C649.392 233.436 645.648 237.216 640.572 237.216C637.476 237.216 635.388 235.956 634.272 234.192L633.876 237H631.32V211.8H634.272V221.592C635.496 219.9 637.476 218.424 640.572 218.424ZM640.284 234.588C643.92 234.588 646.368 231.816 646.368 227.82C646.368 223.824 643.92 221.052 640.284 221.052C636.684 221.052 634.236 223.824 634.236 227.748C634.236 231.78 636.684 234.588 640.284 234.588ZM655.776 244.2H651.708V241.5H654.804C656.496 241.5 656.784 241.068 657.468 239.34L658.368 237.108L651.024 218.64H654.156L660.06 233.292L665.82 218.64H668.952L660.204 240.096C659.052 243.012 658.368 244.2 655.776 244.2ZM682.058 241.68H679.142L689.33 210.72H692.246L682.058 241.68ZM706.95 220.8V211.8H712.026V237H707.598L707.094 234.444C705.87 236.028 704.07 237.216 701.406 237.216C696.438 237.216 692.802 233.58 692.802 227.712C692.802 221.988 696.438 218.28 701.37 218.28C703.926 218.28 705.762 219.288 706.95 220.8ZM702.522 233.076C705.294 233.076 707.022 230.916 707.022 227.784C707.022 224.616 705.294 222.42 702.522 222.42C699.75 222.42 697.986 224.58 697.986 227.748C697.986 230.916 699.75 233.076 702.522 233.076ZM724.709 237.216C718.553 237.216 714.845 233.508 714.845 227.784C714.845 222.024 718.625 218.28 724.349 218.28C729.893 218.28 733.637 221.736 733.709 227.172C733.709 227.712 733.673 228.324 733.565 228.9H720.137V229.152C720.245 231.78 721.937 233.364 724.493 233.364C726.545 233.364 727.985 232.464 728.417 230.736H733.421C732.845 234.336 729.641 237.216 724.709 237.216ZM720.245 225.588H728.597C728.237 223.32 726.689 222.06 724.385 222.06C722.189 222.06 720.533 223.392 720.245 225.588ZM740.464 237L733.804 218.496H739.24L743.704 231.816L748.096 218.496H753.424L746.764 237H740.464ZM756.484 241.68H753.568L763.756 210.72H766.672L756.484 241.68ZM778.496 218.28C782.6 218.28 785.984 220.476 785.984 226.74V237H780.908V227.172C780.908 224.148 779.684 222.456 777.164 222.456C774.572 222.456 773.024 224.328 773.024 227.496V237H767.948V211.8H773.024V220.764C774.212 219.324 775.868 218.28 778.496 218.28ZM801.53 227.748V218.496H806.606V237H802.106L801.638 234.768C800.45 236.208 798.83 237.216 796.202 237.216C792.386 237.216 788.858 235.308 788.858 228.756V218.496H793.934V228.072C793.934 231.384 795.014 233.004 797.534 233.004C800.054 233.004 801.53 231.168 801.53 227.748ZM820.791 218.28C825.759 218.28 829.359 221.844 829.359 227.712C829.359 233.436 825.759 237.216 820.755 237.216C818.091 237.216 816.255 236.064 815.067 234.48L814.563 237H810.135V211.8H815.211V220.836C816.435 219.36 818.235 218.28 820.791 218.28ZM819.639 233.076C822.411 233.076 824.211 230.916 824.211 227.748C824.211 224.58 822.411 222.42 819.639 222.42C816.867 222.42 815.139 224.58 815.139 227.712C815.139 230.88 816.867 233.076 819.639 233.076Z" fill="#989898"/>
</svg>
